<svg width="212" height="36" viewBox="0 0 212 36" fill="none" xmlns="http://www.w3.org/2000/svg">
<path d="M19.492 8.864C19.492 10.328 19.156 11.672 18.484 12.896C17.812 14.096 16.78 15.068 15.388 15.812C13.996 16.556 12.268 16.928 10.204 16.928H6.388V26H0.232V0.727999H10.204C12.22 0.727999 13.924 1.076 15.316 1.772C16.708 2.468 17.752 3.428 18.448 4.652C19.144 5.876 19.492 7.28 19.492 8.864ZM9.736 12.032C10.912 12.032 11.788 11.756 12.364 11.204C12.94 10.652 13.228 9.872 13.228 8.864C13.228 7.856 12.94 7.076 12.364 6.524C11.788 5.972 10.912 5.696 9.736 5.696H6.388V12.032H9.736ZM43.2168 5.912L30.6168 35.54H23.9928L28.6008 25.316L20.4288 5.912H27.3048L31.9488 18.476L36.5568 5.912H43.2168ZM44.3989 13.328C44.3989 10.832 44.9389 8.612 46.0189 6.668C47.0989 4.7 48.5989 3.176 50.5189 2.096C52.4629 0.991999 54.6589 0.439999 57.1069 0.439999C60.1069 0.439999 62.6749 1.232 64.8109 2.816C66.9469 4.4 68.3749 6.56 69.0949 9.296H62.3269C61.8229 8.24 61.1029 7.436 60.1669 6.884C59.2549 6.332 58.2109 6.056 57.0349 6.056C55.1389 6.056 53.6029 6.716 52.4269 8.036C51.2509 9.356 50.6629 11.12 50.6629 13.328C50.6629 15.536 51.2509 17.3 52.4269 18.62C53.6029 19.94 55.1389 20.6 57.0349 20.6C58.2109 20.6 59.2549 20.324 60.1669 19.772C61.1029 19.22 61.8229 18.416 62.3269 17.36H69.0949C68.3749 20.096 66.9469 22.256 64.8109 23.84C62.6749 25.4 60.1069 26.18 57.1069 26.18C54.6589 26.18 52.4629 25.64 50.5189 24.56C48.5989 23.456 47.0989 21.932 46.0189 19.988C44.9389 18.044 44.3989 15.824 44.3989 13.328ZM82.0088 26.288C80.0408 26.288 78.2648 25.868 76.6808 25.028C75.1208 24.188 73.8848 22.988 72.9728 21.428C72.0848 19.868 71.6408 18.044 71.6408 15.956C71.6408 13.892 72.0968 12.08 73.0088 10.52C73.9208 8.936 75.1688 7.724 76.7528 6.884C78.3368 6.044 80.1128 5.624 82.0808 5.624C84.0488 5.624 85.8248 6.044 87.4088 6.884C88.9928 7.724 90.2408 8.936 91.1528 10.52C92.0648 12.08 92.5208 13.892 92.5208 15.956C92.5208 18.02 92.0528 19.844 91.1168 21.428C90.2048 22.988 88.9448 24.188 87.3368 25.028C85.7528 25.868 83.9768 26.288 82.0088 26.288ZM82.0088 20.96C83.1848 20.96 84.1808 20.528 84.9968 19.664C85.8368 18.8 86.2568 17.564 86.2568 15.956C86.2568 14.348 85.8488 13.112 85.0328 12.248C84.2408 11.384 83.2568 10.952 82.0808 10.952C80.8808 10.952 79.8848 11.384 79.0928 12.248C78.3008 13.088 77.9048 14.324 77.9048 15.956C77.9048 17.564 78.2888 18.8 79.0568 19.664C79.8488 20.528 80.8328 20.96 82.0088 20.96ZM108.027 5.696C110.379 5.696 112.251 6.464 113.643 8C115.059 9.512 115.767 11.6 115.767 14.264V26H109.647V15.092C109.647 13.748 109.299 12.704 108.603 11.96C107.907 11.216 106.971 10.844 105.795 10.844C104.619 10.844 103.683 11.216 102.987 11.96C102.291 12.704 101.943 13.748 101.943 15.092V26H95.7867V5.912H101.943V8.576C102.567 7.688 103.407 6.992 104.463 6.488C105.519 5.96 106.707 5.696 108.027 5.696ZM131.241 20.78V26H128.109C125.877 26 124.137 25.46 122.889 24.38C121.641 23.276 121.017 21.488 121.017 19.016V11.024H118.569V5.912H121.017V1.016H127.173V5.912H131.205V11.024H127.173V19.088C127.173 19.688 127.317 20.12 127.605 20.384C127.893 20.648 128.373 20.78 129.045 20.78H131.241ZM133.446 15.92C133.446 13.856 133.83 12.044 134.598 10.484C135.39 8.924 136.458 7.724 137.802 6.884C139.146 6.044 140.646 5.624 142.302 5.624C143.718 5.624 144.954 5.912 146.01 6.488C147.09 7.064 147.918 7.82 148.494 8.756V5.912H154.65V26H148.494V23.156C147.894 24.092 147.054 24.848 145.974 25.424C144.918 26 143.682 26.288 142.266 26.288C140.634 26.288 139.146 25.868 137.802 25.028C136.458 24.164 135.39 22.952 134.598 21.392C133.83 19.808 133.446 17.984 133.446 15.92ZM148.494 15.956C148.494 14.42 148.062 13.208 147.198 12.32C146.358 11.432 145.326 10.988 144.102 10.988C142.878 10.988 141.834 11.432 140.97 12.32C140.13 13.184 139.71 14.384 139.71 15.92C139.71 17.456 140.13 18.68 140.97 19.592C141.834 20.48 142.878 20.924 144.102 20.924C145.326 20.924 146.358 20.48 147.198 19.592C148.062 18.704 148.494 17.492 148.494 15.956ZM157.879 15.956C157.879 13.868 158.299 12.044 159.139 10.484C160.003 8.924 161.191 7.724 162.703 6.884C164.239 6.044 165.991 5.624 167.959 5.624C170.479 5.624 172.579 6.284 174.259 7.604C175.963 8.924 177.079 10.784 177.607 13.184H171.055C170.503 11.648 169.435 10.88 167.851 10.88C166.723 10.88 165.823 11.324 165.151 12.212C164.479 13.076 164.143 14.324 164.143 15.956C164.143 17.588 164.479 18.848 165.151 19.736C165.823 20.6 166.723 21.032 167.851 21.032C169.435 21.032 170.503 20.264 171.055 18.728H177.607C177.079 21.08 175.963 22.928 174.259 24.272C172.555 25.616 170.455 26.288 167.959 26.288C165.991 26.288 164.239 25.868 162.703 25.028C161.191 24.188 160.003 22.988 159.139 21.428C158.299 19.868 157.879 18.044 157.879 15.956ZM192.096 20.78V26H188.964C186.732 26 184.992 25.46 183.744 24.38C182.496 23.276 181.872 21.488 181.872 19.016V11.024H179.424V5.912H181.872V1.016H188.028V5.912H192.06V11.024H188.028V19.088C188.028 19.688 188.172 20.12 188.46 20.384C188.748 20.648 189.228 20.78 189.9 20.78H192.096ZM203.697 26.288C201.945 26.288 200.385 25.988 199.017 25.388C197.649 24.788 196.569 23.972 195.777 22.94C194.985 21.884 194.541 20.708 194.445 19.412H200.529C200.601 20.108 200.925 20.672 201.501 21.104C202.077 21.536 202.785 21.752 203.625 21.752C204.393 21.752 204.981 21.608 205.389 21.32C205.821 21.008 206.037 20.612 206.037 20.132C206.037 19.556 205.737 19.136 205.137 18.872C204.537 18.584 203.565 18.272 202.221 17.936C200.781 17.6 199.581 17.252 198.621 16.892C197.661 16.508 196.833 15.92 196.137 15.128C195.441 14.312 195.093 13.22 195.093 11.852C195.093 10.7 195.405 9.656 196.029 8.72C196.677 7.76 197.613 7.004 198.837 6.452C200.085 5.9 201.561 5.624 203.265 5.624C205.785 5.624 207.765 6.248 209.205 7.496C210.669 8.744 211.509 10.4 211.725 12.464H206.037C205.941 11.768 205.629 11.216 205.101 10.808C204.597 10.4 203.925 10.196 203.085 10.196C202.365 10.196 201.813 10.34 201.429 10.628C201.045 10.892 200.853 11.264 200.853 11.744C200.853 12.32 201.153 12.752 201.753 13.04C202.377 13.328 203.337 13.616 204.633 13.904C206.121 14.288 207.333 14.672 208.269 15.056C209.205 15.416 210.021 16.016 210.717 16.856C211.437 17.672 211.809 18.776 211.833 20.168C211.833 21.344 211.497 22.4 210.825 23.336C210.177 24.248 209.229 24.968 207.981 25.496C206.757 26.024 205.329 26.288 203.697 26.288Z" fill="#0A2038"/>
</svg>
